# Blender v2.81 (sub 16) OBJ File: 'shelf5.blend'
# www.blender.org
mtllib shelf5.mtl
o RightSide_Cube
v 0.153949 9.568148 -9.659221
v 0.153949 -7.011853 -9.659221
v 0.153949 9.568148 -9.451461
v 0.153949 -7.011853 -9.451461
v -3.926051 9.568148 -9.659221
v -3.926051 -7.011853 -9.659221
v -3.926051 9.568148 -9.451461
v -3.926051 -7.011853 -9.451461
v 0.153949 9.568148 -9.659221
v 0.153949 -7.011853 -9.659221
v 0.153949 9.568148 -9.451461
v 0.153949 -7.011853 -9.451461
vt 0.625000 0.500000
vt 0.875000 0.500000
vt 0.875000 0.750000
vt 0.625000 0.750000
vt 0.375000 0.750000
vt 0.625000 1.000000
vt 0.375000 1.000000
vt 0.375000 0.000000
vt 0.625000 0.000000
vt 0.625000 0.250000
vt 0.375000 0.250000
vt 0.125000 0.500000
vt 0.375000 0.500000
vt 0.125000 0.750000
vt 0.375000 0.750000
vt 0.625000 0.750000
vt 0.375000 0.500000
vt 0.625000 0.500000
vn 0.0000 1.0000 0.0000
vn 0.0000 0.0000 1.0000
vn -1.0000 0.0000 0.0000
vn 0.0000 -1.0000 0.0000
vn 0.0000 0.0000 -1.0000
vn 1.0000 0.0000 0.0000
usemtl Material
s off
f 1/1/1 5/2/1 7/3/1 3/4/1
f 4/5/2 3/4/2 7/6/2 8/7/2
f 8/8/3 7/9/3 5/10/3 6/11/3
f 6/12/4 2/13/4 4/5/4 8/14/4
f 3/4/2 4/5/2 12/15/2 11/16/2
f 6/11/5 5/10/5 1/1/5 2/13/5
f 10/17/6 9/18/6 11/16/6 12/15/6
f 2/13/2 1/1/2 9/18/2 10/17/2
f 4/5/2 2/13/2 10/17/2 12/15/2
f 1/1/2 3/4/2 11/16/2 9/18/2
o Tray2_Cube.003
v -3.130850 -2.777490 9.423880
v -2.692217 -2.357693 9.423880
v -3.130850 -2.777490 -9.423880
v -2.692217 -2.357693 -9.423880
v -0.150850 -2.777490 9.423880
v -0.150850 -2.357693 9.423880
v -0.150850 -2.777490 -9.423880
v -0.150850 -2.357693 -9.423880
v -3.286792 -2.704097 -9.423880
v -3.286792 -2.704097 9.423880
v -2.848159 -2.284300 9.423880
v -2.848159 -2.284300 -9.423880
v -3.286792 -2.704097 -9.423880
v -3.286792 -2.704097 9.423880
v -2.848159 -2.284300 9.423880
v -2.848159 -2.284300 -9.423880
v -2.603056 -2.272361 9.423880
v -2.603056 -2.272361 -9.423880
v -2.758998 -2.198968 9.423880
v -2.758998 -2.198968 -9.423880
vt 0.625000 1.000000
vt 0.625000 1.000000
vt 0.625000 1.000000
vt 0.625000 1.000000
vt 0.375000 0.250000
vt 0.625000 0.250000
vt 0.625000 0.500000
vt 0.375000 0.500000
vt 0.625000 0.750000
vt 0.375000 0.750000
vt 0.375000 1.000000
vt 0.125000 0.500000
vt 0.125000 0.750000
vt 0.875000 0.500000
vt 0.875000 0.750000
vt 0.625000 0.250000
vt 0.375000 0.250000
vt 0.375000 0.250000
vt 0.625000 0.250000
vt 0.125000 0.750000
vt 0.125000 0.500000
vt 0.375000 1.000000
vt 0.375000 0.000000
vt 0.625000 0.000000
vt 0.625000 1.000000
vt 0.375000 1.000000
vt 0.875000 0.750000
vt 0.875000 0.500000
vt 0.875000 0.500000
vt 0.875000 0.750000
vt 0.125000 0.750000
vt 0.125000 0.500000
vt 0.875000 0.750000
vt 0.875000 0.500000
vt 0.875000 0.500000
vt 0.875000 0.750000
vt 0.625000 0.250000
vt 0.625000 0.250000
vn -0.0000 0.0000 1.0000
vn 0.0000 0.0000 -1.0000
vn 1.0000 0.0000 0.0000
vn 0.0000 -1.0000 0.0000
vn 0.0000 1.0000 0.0000
vn -0.4258 -0.9048 0.0000
vn -0.6914 0.7224 0.0000
vn 0.4258 0.9048 0.0000
vn 0.6914 -0.7224 0.0000
usemtl None
s off
f 23/19/7 14/20/7 29/21/7 31/22/7
f 15/23/8 16/24/8 20/25/8 19/26/8
f 19/26/9 20/25/9 18/27/9 17/28/9
f 17/28/7 18/27/7 14/20/7 13/29/7
f 15/30/10 19/26/10 17/28/10 13/31/10
f 20/25/11 16/32/11 14/33/11 18/27/11
f 24/34/7 21/35/7 25/36/7 28/37/7
f 15/30/12 13/31/12 22/38/12 21/39/12
f 16/24/8 15/23/8 21/35/8 24/34/8
f 13/29/7 14/20/7 23/19/7 22/40/7
f 26/41/13 27/42/13 28/37/13 25/36/13
f 22/40/7 23/19/7 27/43/7 26/44/7
f 23/45/7 24/46/7 28/47/7 27/48/7
f 21/39/7 22/38/7 26/49/7 25/50/7
f 29/51/14 30/52/14 32/53/14 31/54/14
f 14/33/15 16/32/15 30/52/15 29/51/15
f 16/24/8 24/34/8 32/55/8 30/56/8
f 24/46/13 23/45/13 31/54/13 32/53/13
o Tray3_Cube.004
v -3.130850 1.328635 9.423880
v -2.692217 1.748433 9.423880
v -3.130850 1.328635 -9.423880
v -2.692217 1.748433 -9.423880
v -0.150850 1.328635 9.423880
v -0.150850 1.748433 9.423880
v -0.150850 1.328635 -9.423880
v -0.150850 1.748433 -9.423880
v -3.286792 1.402028 -9.423880
v -3.286792 1.402028 9.423880
v -2.848159 1.821825 9.423880
v -2.848159 1.821825 -9.423880
v -3.286792 1.402028 -9.423880
v -3.286792 1.402028 9.423880
v -2.848159 1.821825 9.423880
v -2.848159 1.821825 -9.423880
v -2.603056 1.833764 9.423880
v -2.603056 1.833764 -9.423880
v -2.758998 1.907157 9.423880
v -2.758998 1.907157 -9.423880
vt 0.625000 1.000000
vt 0.625000 1.000000
vt 0.625000 1.000000
vt 0.625000 1.000000
vt 0.375000 0.250000
vt 0.625000 0.250000
vt 0.625000 0.500000
vt 0.375000 0.500000
vt 0.625000 0.750000
vt 0.375000 0.750000
vt 0.375000 1.000000
vt 0.125000 0.500000
vt 0.125000 0.750000
vt 0.875000 0.500000
vt 0.875000 0.750000
vt 0.625000 0.250000
vt 0.375000 0.250000
vt 0.375000 0.250000
vt 0.625000 0.250000
vt 0.125000 0.750000
vt 0.125000 0.500000
vt 0.375000 1.000000
vt 0.375000 0.000000
vt 0.625000 0.000000
vt 0.625000 1.000000
vt 0.375000 1.000000
vt 0.875000 0.750000
vt 0.875000 0.500000
vt 0.875000 0.500000
vt 0.875000 0.750000
vt 0.125000 0.750000
vt 0.125000 0.500000
vt 0.875000 0.750000
vt 0.875000 0.500000
vt 0.875000 0.500000
vt 0.875000 0.750000
vt 0.625000 0.250000
vt 0.625000 0.250000
vn 0.0000 0.0000 1.0000
vn 0.0000 0.0000 -1.0000
vn 1.0000 0.0000 0.0000
vn 0.0000 -1.0000 0.0000
vn 0.0000 1.0000 0.0000
vn -0.4258 -0.9048 0.0000
vn -0.6914 0.7224 0.0000
vn 0.4258 0.9048 0.0000
vn 0.6914 -0.7224 0.0000
usemtl None
s off
f 43/57/16 34/58/16 49/59/16 51/60/16
f 35/61/17 36/62/17 40/63/17 39/64/17
f 39/64/18 40/63/18 38/65/18 37/66/18
f 37/66/16 38/65/16 34/58/16 33/67/16
f 35/68/19 39/64/19 37/66/19 33/69/19
f 40/63/20 36/70/20 34/71/20 38/65/20
f 44/72/16 41/73/16 45/74/16 48/75/16
f 35/68/21 33/69/21 42/76/21 41/77/21
f 36/62/17 35/61/17 41/73/17 44/72/17
f 33/67/16 34/58/16 43/57/16 42/78/16
f 46/79/22 47/80/22 48/75/22 45/74/22
f 42/78/16 43/57/16 47/81/16 46/82/16
f 43/83/16 44/84/16 48/85/16 47/86/16
f 41/77/16 42/76/16 46/87/16 45/88/16
f 49/89/23 50/90/23 52/91/23 51/92/23
f 34/71/24 36/70/24 50/90/24 49/89/24
f 36/62/17 44/72/17 52/93/17 50/94/17
f 44/84/22 43/83/22 51/92/22 52/91/22
o Tray4_Cube.005
v -3.130850 5.029099 9.423880
v -2.692217 5.448895 9.423880
v -3.130850 5.029099 -9.423880
v -2.692217 5.448895 -9.423880
v -0.150850 5.029099 9.423880
v -0.150850 5.448895 9.423880
v -0.150850 5.029099 -9.423880
v -0.150850 5.448895 -9.423880
v -3.286792 5.102491 -9.423880
v -3.286792 5.102491 9.423880
v -2.848159 5.522288 9.423880
v -2.848159 5.522288 -9.423880
v -3.286792 5.102491 -9.423880
v -3.286792 5.102491 9.423880
v -2.848159 5.522288 9.423880
v -2.848159 5.522288 -9.423880
v -2.603056 5.534227 9.423880
v -2.603056 5.534227 -9.423880
v -2.758998 5.607620 9.423880
v -2.758998 5.607620 -9.423880
vt 0.625000 1.000000
vt 0.625000 1.000000
vt 0.625000 1.000000
vt 0.625000 1.000000
vt 0.375000 0.250000
vt 0.625000 0.250000
vt 0.625000 0.500000
vt 0.375000 0.500000
vt 0.625000 0.750000
vt 0.375000 0.750000
vt 0.375000 1.000000
vt 0.125000 0.500000
vt 0.125000 0.750000
vt 0.875000 0.500000
vt 0.875000 0.750000
vt 0.625000 0.250000
vt 0.375000 0.250000
vt 0.375000 0.250000
vt 0.625000 0.250000
vt 0.125000 0.750000
vt 0.125000 0.500000
vt 0.375000 1.000000
vt 0.375000 0.000000
vt 0.625000 0.000000
vt 0.625000 1.000000
vt 0.375000 1.000000
vt 0.875000 0.750000
vt 0.875000 0.500000
vt 0.875000 0.500000
vt 0.875000 0.750000
vt 0.125000 0.750000
vt 0.125000 0.500000
vt 0.875000 0.750000
vt 0.875000 0.500000
vt 0.875000 0.500000
vt 0.875000 0.750000
vt 0.625000 0.250000
vt 0.625000 0.250000
vn 0.0000 0.0000 1.0000
vn 0.0000 0.0000 -1.0000
vn 1.0000 0.0000 0.0000
vn 0.0000 -1.0000 0.0000
vn 0.0000 1.0000 0.0000
vn -0.4258 -0.9048 0.0000
vn -0.6914 0.7224 0.0000
vn 0.4258 0.9048 0.0000
vn 0.6914 -0.7224 0.0000
usemtl None
s off
f 63/95/25 54/96/25 69/97/25 71/98/25
f 55/99/26 56/100/26 60/101/26 59/102/26
f 59/102/27 60/101/27 58/103/27 57/104/27
f 57/104/25 58/103/25 54/96/25 53/105/25
f 55/106/28 59/102/28 57/104/28 53/107/28
f 60/101/29 56/108/29 54/109/29 58/103/29
f 64/110/25 61/111/25 65/112/25 68/113/25
f 55/106/30 53/107/30 62/114/30 61/115/30
f 56/100/26 55/99/26 61/111/26 64/110/26
f 53/105/25 54/96/25 63/95/25 62/116/25
f 66/117/31 67/118/31 68/113/31 65/112/31
f 62/116/25 63/95/25 67/119/25 66/120/25
f 63/121/25 64/122/25 68/123/25 67/124/25
f 61/115/25 62/114/25 66/125/25 65/126/25
f 69/127/32 70/128/32 72/129/32 71/130/32
f 54/109/33 56/108/33 70/128/33 69/127/33
f 56/100/26 64/110/26 72/131/26 70/132/26
f 64/122/31 63/121/31 71/130/31 72/129/31
o Main_Frame_Cube.002
v 0.150000 8.322514 -9.423880
v 0.150000 -6.957487 -9.423880
v 0.150000 8.322514 9.423880
v 0.150000 -6.957487 9.423880
v -0.150000 8.322514 -9.423880
v -0.150000 -6.957487 -9.423880
v -0.150000 8.322514 9.423880
v -0.150000 -6.957487 9.423880
v 0.150000 8.322514 -9.423880
v 0.150000 -6.957487 -9.423880
v 0.150000 8.322514 9.423880
v 0.150000 -6.957487 9.423880
vt 0.625000 0.500000
vt 0.875000 0.500000
vt 0.875000 0.750000
vt 0.625000 0.750000
vt 0.375000 0.750000
vt 0.625000 1.000000
vt 0.375000 1.000000
vt 0.375000 0.000000
vt 0.625000 0.000000
vt 0.625000 0.250000
vt 0.375000 0.250000
vt 0.125000 0.500000
vt 0.375000 0.500000
vt 0.125000 0.750000
vt 0.375000 0.750000
vt 0.625000 0.750000
vt 0.375000 0.500000
vt 0.625000 0.500000
vn 0.0000 1.0000 0.0000
vn 0.0000 0.0000 1.0000
vn -1.0000 0.0000 0.0000
vn 0.0000 -1.0000 0.0000
vn 0.0000 0.0000 -1.0000
vn 1.0000 0.0000 0.0000
usemtl Material.001
s off
f 73/133/34 77/134/34 79/135/34 75/136/34
f 76/137/35 75/136/35 79/138/35 80/139/35
f 80/140/36 79/141/36 77/142/36 78/143/36
f 78/144/37 74/145/37 76/137/37 80/146/37
f 75/136/35 76/137/35 84/147/35 83/148/35
f 78/143/38 77/142/38 73/133/38 74/145/38
f 82/149/39 81/150/39 83/148/39 84/147/39
f 74/145/35 73/133/35 81/150/35 82/149/35
f 76/137/35 74/145/35 82/149/35 84/147/35
f 73/133/35 75/136/35 83/148/35 81/150/35
o Base_Cube.006
v 0.153949 -2.695879 -9.469170
v 0.153949 -6.995879 -9.469170
v 0.153949 -2.695879 9.398590
v 0.153949 -6.995879 9.398590
v -3.926051 -2.695879 -9.469170
v -3.926051 -6.995879 -9.469170
v -3.926051 -2.695879 9.398590
v -3.926051 -6.995879 9.398590
v 0.153949 -2.695879 -9.469170
v 0.153949 -6.995879 -9.469170
v 0.153949 -2.695879 9.398590
v 0.153949 -6.995879 9.398590
vt 0.625000 0.500000
vt 0.875000 0.500000
vt 0.875000 0.750000
vt 0.625000 0.750000
vt 0.375000 0.750000
vt 0.625000 1.000000
vt 0.375000 1.000000
vt 0.375000 0.000000
vt 0.625000 0.000000
vt 0.625000 0.250000
vt 0.375000 0.250000
vt 0.125000 0.500000
vt 0.375000 0.500000
vt 0.125000 0.750000
vt 0.375000 0.750000
vt 0.625000 0.750000
vt 0.375000 0.500000
vt 0.625000 0.500000
vn 0.0000 1.0000 0.0000
vn 0.0000 0.0000 1.0000
vn -1.0000 0.0000 0.0000
vn 0.0000 -1.0000 0.0000
vn 0.0000 0.0000 -1.0000
vn 1.0000 0.0000 0.0000
usemtl Material.002
s off
f 85/151/40 89/152/40 91/153/40 87/154/40
f 88/155/41 87/154/41 91/156/41 92/157/41
f 92/158/42 91/159/42 89/160/42 90/161/42
f 90/162/43 86/163/43 88/155/43 92/164/43
f 87/154/41 88/155/41 96/165/41 95/166/41
f 90/161/44 89/160/44 85/151/44 86/163/44
f 94/167/45 93/168/45 95/166/45 96/165/45
f 86/163/41 85/151/41 93/168/41 94/167/41
f 88/155/41 86/163/41 94/167/41 96/165/41
f 85/151/41 87/154/41 95/166/41 93/168/41
o Top_Cube.007
v 0.153949 9.577660 -9.469170
v 0.153949 8.277658 -9.469170
v 0.153949 9.577660 9.398590
v 0.153949 8.277658 9.398590
v -3.926051 9.577660 -9.469170
v -3.926051 8.277658 -9.469170
v -3.926051 9.577660 9.398590
v -3.926051 8.277658 9.398590
v 0.153949 9.577660 -9.469170
v 0.153949 8.277658 -9.469170
v 0.153949 9.577660 9.398590
v 0.153949 8.277658 9.398590
vt 0.625000 0.500000
vt 0.875000 0.500000
vt 0.875000 0.750000
vt 0.625000 0.750000
vt 0.375000 0.750000
vt 0.625000 1.000000
vt 0.375000 1.000000
vt 0.375000 0.000000
vt 0.625000 0.000000
vt 0.625000 0.250000
vt 0.375000 0.250000
vt 0.125000 0.500000
vt 0.375000 0.500000
vt 0.125000 0.750000
vt 0.375000 0.750000
vt 0.625000 0.750000
vt 0.375000 0.500000
vt 0.625000 0.500000
vn 0.0000 1.0000 0.0000
vn 0.0000 0.0000 1.0000
vn -1.0000 0.0000 0.0000
vn 0.0000 -1.0000 0.0000
vn 0.0000 0.0000 -1.0000
vn 1.0000 0.0000 0.0000
usemtl Material.003
s off
f 97/169/46 101/170/46 103/171/46 99/172/46
f 100/173/47 99/172/47 103/174/47 104/175/47
f 104/176/48 103/177/48 101/178/48 102/179/48
f 102/180/49 98/181/49 100/173/49 104/182/49
f 99/172/47 100/173/47 108/183/47 107/184/47
f 102/179/50 101/178/50 97/169/50 98/181/50
f 106/185/51 105/186/51 107/184/51 108/183/51
f 98/181/47 97/169/47 105/186/47 106/185/47
f 100/173/47 98/181/47 106/185/47 108/183/47
f 97/169/47 99/172/47 107/184/47 105/186/47
o LeftSide_Cube.008
v 0.153949 9.568148 9.401422
v 0.153949 -7.011853 9.401422
v 0.153949 9.568148 9.609181
v 0.153949 -7.011853 9.609181
v -3.926051 9.568148 9.401422
v -3.926051 -7.011853 9.401422
v -3.926051 9.568148 9.609181
v -3.926051 -7.011853 9.609181
v 0.153949 9.568148 9.401422
v 0.153949 -7.011853 9.401422
v 0.153949 9.568148 9.609181
v 0.153949 -7.011853 9.609181
vt 0.625000 0.500000
vt 0.875000 0.500000
vt 0.875000 0.750000
vt 0.625000 0.750000
vt 0.375000 0.750000
vt 0.625000 1.000000
vt 0.375000 1.000000
vt 0.375000 0.000000
vt 0.625000 0.000000
vt 0.625000 0.250000
vt 0.375000 0.250000
vt 0.125000 0.500000
vt 0.375000 0.500000
vt 0.125000 0.750000
vt 0.375000 0.750000
vt 0.625000 0.750000
vt 0.375000 0.500000
vt 0.625000 0.500000
vn 0.0000 1.0000 0.0000
vn 0.0000 0.0000 1.0000
vn -1.0000 0.0000 0.0000
vn 0.0000 -1.0000 0.0000
vn 0.0000 0.0000 -1.0000
vn 1.0000 0.0000 0.0000
usemtl Material.004
s off
f 109/187/52 113/188/52 115/189/52 111/190/52
f 112/191/53 111/190/53 115/192/53 116/193/53
f 116/194/54 115/195/54 113/196/54 114/197/54
f 114/198/55 110/199/55 112/191/55 116/200/55
f 111/190/53 112/191/53 120/201/53 119/202/53
f 114/197/56 113/196/56 109/187/56 110/199/56
f 118/203/57 117/204/57 119/202/57 120/201/57
f 110/199/53 109/187/53 117/204/53 118/203/53
f 112/191/53 110/199/53 118/203/53 120/201/53
f 109/187/53 111/190/53 119/202/53 117/204/53
