<?xml version="1.0" encoding="UTF-8"?>
<!-- Created with Inkscape (http://www.inkscape.org/) -->
<svg width="130.42" height="151.31" version="1.1" viewBox="0 0 130.42 151.31" xml:space="preserve" xmlns="http://www.w3.org/2000/svg" xmlns:cc="http://creativecommons.org/ns#" xmlns:dc="http://purl.org/dc/elements/1.1/" xmlns:rdf="http://www.w3.org/1999/02/22-rdf-syntax-ns#"><metadata><rdf:RDF><cc:Work rdf:about=""><dc:format>image/svg+xml</dc:format><dc:type rdf:resource="http://purl.org/dc/dcmitype/StillImage"/><dc:title/></cc:Work></rdf:RDF></metadata><defs><clipPath id="clipPath126"><path d="m0 500h500v-500h-500z"/></clipPath></defs><g transform="matrix(1.3333 0 0 -1.3333 -421.03 569.88)"><text transform="scale(.97813 -1.0224)" x="340.25421" y="-311.50854" fill="#27af4b" font-family="'Montserrat SemiBold'" font-size="23.595px" font-style="italic" font-weight="600" stroke-width=".97813"><tspan x="340.25421" y="-311.50854" stroke-width=".97813">Ae</tspan></text>
<text transform="scale(.97813 -1.0224)" x="375.7951" y="-312.15057" fill="#113f59" font-family="Montserrat" font-size="23.595px" font-style="italic" font-weight="bold" stroke-width=".97813"><tspan x="375.7951" y="-312.15057" stroke-width=".97813">yon</tspan></text>
<g clip-path="url(#clipPath126)"><g transform="translate(323.21 418.3)"><path d="m0 0h11.855c0.022 0 0.04-0.016 0.041-0.037l2.367-21.884 8.127 9.586-2.315 21.409c-3e-3 0.021-0.02 0.037-0.041 0.037h-27.429c-0.035 0-0.054-0.041-0.032-0.068l7.395-9.028c8e-3 -0.01 0.019-0.015 0.032-0.015" fill="#27af4b"/></g><g transform="translate(384.07 409.43)"><path d="m0 0h-11.496v-9.099c1.192-7e-3 7.783-0.012 7.794-0.012h4.297c7.915 0 14.312-6.624 13.939-14.619-0.351-7.518-6.855-13.289-14.382-13.289h-23.787l-6.963-7.981c2.146-0.72 4.43-1.129 6.806-1.129h24.387c12.176 0 22.178 9.483 23.009 21.451 0.941 13.553-10.018 24.678-23.604 24.678" fill="#27af4b"/></g><g transform="translate(367.53 353.14)"><path d="m0 0c0-4.083-3.31-7.393-7.393-7.393s-7.392 3.31-7.392 7.393 3.309 7.393 7.392 7.393 7.393-3.31 7.393-7.393" fill="#113f59"/></g><g transform="translate(398.7 353.14)"><path d="m0 0c0-4.083-3.31-7.393-7.393-7.393-4.082 0-7.392 3.31-7.392 7.393s3.31 7.393 7.392 7.393c4.083 0 7.393-3.31 7.393-7.393" fill="#113f59"/></g><g transform="translate(363.47 397.1)"><path d="m0 0c-2.097-0.398-3.902 1.407-3.504 3.505 0.221 1.165 1.174 2.118 2.339 2.339 2.098 0.398 3.902-1.407 3.505-3.505-0.221-1.165-1.174-2.118-2.34-2.339m-14.826 8.721-21.918-25.851c-1.218-1.437-1.064-3.584 0.348-4.832l15.537-13.737c1.439-1.272 3.638-1.129 4.901 0.318l22.838 26.178 0.147 19.179c0.011 1.417-1.269 2.494-2.664 2.24z" fill="#113f59"/></g></g></g></svg>
